<svg xmlns="http://www.w3.org/2000/svg" xmlns:xlink="http://www.w3.org/1999/xlink" aria-hidden="true" role="img" class="iconify iconify--logos" width="35.93" height="32" preserveAspectRatio="xMidYMid meet" viewBox="0 0 256 228"><path fill="#00D8FF" d="M210.483 73.824a171.49 171.49 0 0 0-11.622-4.455c.465-1.91.908-3.787 1.329-5.625c6.238-27.124 4.89-50.443-3.872-58.01c-8.762-7.566-25.912-4.683-45.469 6.456a171.23 171.23 0 0 0-10.598 6.33a155.866 155.866 0 0 0-5.326-1.599C119.759 2.226 104.663 0 93.663 0C82.662 0 74.756 2.226 69.944 6.677c-4.812 4.452-7.33 11.361-7.33 20.483c0 7.863 1.422 16.837 4.198 26.564a170.299 170.299 0 0 0-11.36 4.22C28.281 45.362 8.822 44.017.06 51.583C-8.702 59.15-10.05 82.47-3.812 109.593a170.974 170.974 0 0 0 7.33 25.19a155.526 155.526 0 0 0-5.78 2.13c-9.593 3.776-16.502 8.408-20.314 13.86C-25.84 156.226-28.357 163.135-28.357 172.257c0 7.863 1.422 16.837 4.198 26.564c2.776 9.727 6.792 19.71 11.828 29.483c5.036 9.772 10.822 18.998 17.102 27.21c6.28 8.213 12.853 15.185 19.459 20.644c6.606 5.46 13.07 9.285 19.142 11.316c6.071 2.03 11.622 2.276 16.418.712c4.796-1.563 8.718-4.778 11.597-9.593c2.88-4.815 4.663-10.87 5.326-17.92a155.866 155.866 0 0 0 5.326 1.599c8.762 7.566 23.858 9.793 34.858 9.793c11 0 18.906-2.226 23.718-6.677c4.812-4.452 7.33-11.361 7.33-20.483c0-7.863-1.422-16.837-4.198-26.564a170.299 170.299 0 0 0 11.36-4.22c27.571-10.244 47.03-11.589 55.792-4.023c8.762 7.566 10.11 30.886 3.872 58.01a170.974 170.974 0 0 0-7.33 25.19a155.526 155.526 0 0 0 5.78-2.13c9.593-3.776 16.502-8.408 20.314-13.86c3.812-5.451 6.33-12.36 6.33-21.482c0-7.863-1.422-16.837-4.198-26.564a171.49 171.49 0 0 0-11.622-4.455c.465-1.91.908-3.787 1.329-5.625c6.238-27.124 4.89-50.443-3.872-58.01c-8.762-7.566-25.912-4.683-45.469 6.456Zm-6.514 44.988a135.834 135.834 0 0 1-5.326 18.233a135.52 135.52 0 0 1-6.792 16.837a115.113 115.113 0 0 1-7.863 14.642a94.707 94.707 0 0 1-8.408 11.828a75.302 75.302 0 0 1-8.408 8.408a56.897 56.897 0 0 1-7.33 4.455a40.492 40.492 0 0 1-5.326 1.599c-1.422.238-2.587.356-3.454.356c-1.71 0-2.88-.356-3.454-1.066c-.574-.712-.712-1.91-.356-3.454c.712-3.098 2.13-6.792 4.198-10.87c2.068-4.1 4.663-8.408 7.686-12.853c3.045-4.455 6.28-8.908 9.593-13.136c3.312-4.25 6.606-8.288 9.704-11.982c3.098-3.716 5.78-6.951 7.863-9.593c2.103-2.642 3.454-4.455 3.99-5.326c.238-.465.356-.82.356-1.066c0-.465-.118-.82-.356-1.066c-.536-.87-1.887-2.684-3.99-5.326c-2.083-2.642-4.765-5.877-7.863-9.593c-3.098-3.694-6.392-7.732-9.704-11.982c-3.312-4.228-6.548-8.681-9.593-13.136c-3.023-4.445-5.618-8.753-7.686-12.853c-2.068-4.078-3.486-7.772-4.198-10.87c-.356-1.543-.238-2.742.356-3.454c.574-.71 1.744-1.066 3.454-1.066c.867 0 2.032.118 3.454.356a40.492 40.492 0 0 1 5.326 1.599a56.897 56.897 0 0 1 7.33 4.455a75.302 75.302 0 0 1 8.408 8.408a94.707 94.707 0 0 1 8.408 11.828a115.113 115.113 0 0 1 7.863 14.642a135.52 135.52 0 0 1 6.792 16.837a135.834 135.834 0 0 1 5.326 18.233c.421 1.838.864 3.716 1.329 5.625a135.834 135.834 0 0 1-1.329 18.233Z"></path></svg>

